<mxfile host="app.diagrams.net" modified="2024-01-05T13:42:29.500Z" agent="Mozilla/5.0 (Windows NT 10.0; Win64; x64) AppleWebKit/537.36 (KHTML, like Gecko) Chrome/120.0.0.0 Safari/537.36" version="22.1.16" etag="Gxzz4V4H8cK4cvK5kbJ8" type="github">
  <diagram name="第 1 页" id="_7V7OMaZ2SGE_eD9ZOyk">
    <mxGraphModel>
      <root>
        <mxCell id="0" />
        <mxCell id="1" parent="0" />
      </root>
    </mxGraphModel>
  </diagram>
</mxfile>
